# xmcd
#
# Track frame offsets: 
#        150
#        15580
#        33557
#        57785
#        72600
#        90035
#        107167
#        125920
#        145357
#        164452
#
# Disc length: 2477 seconds
#
# Revision: 1
# Processed by: cddbd v1.5.2PL0 Copyright (c) Steve Scherf et al.
# Submitted via: ExactAudioCopyFreeDBPlugin 1.0
#
DISCID=8a09ab0a
DTITLE=Jackson Browne - Jackson Browne
DYEAR=1972
DGENRE=A Cappella
TTITLE0=Jamaica Say You Will
TTITLE1=A Child In These Hills
TTITLE2=Song For Adam
TTITLE3=Doctor My Eyes
TTITLE4=From Silver Lake
TTITLE5=Something Fine
TTITLE6=Under The Falling Sky
TTITLE7=Looking Into You
TTITLE8=Rock Me On The Water
TTITLE9=My Opening Farewell
EXTD=
EXTT0=
EXTT1=
EXTT2=
EXTT3=
EXTT4=
EXTT5=
EXTT6=
EXTT7=
EXTT8=
EXTT9=
PLAYORDER=
